<?xml version="1.0" encoding="UTF-8"?>
<svg id="Calque_1" data-name="Calque 1" xmlns="http://www.w3.org/2000/svg" xmlns:xlink="http://www.w3.org/1999/xlink" viewBox="0 0 792 612">
  <defs>
    <style>
      .cls-1 {
        fill: #e9541a;
      }

      .cls-2 {
        fill: #ec8b3a;
      }

      .cls-3, .cls-4 {
        fill: #e5123a;
      }

      .cls-5 {
        fill: url(#Dégradé_sans_nom_94);
        opacity: .48;
      }

      .cls-6 {
        fill: #e86c2a;
        opacity: .61;
      }

      .cls-7 {
        fill: url(#Dégradé_sans_nom_102);
      }

      .cls-8 {
        fill: url(#Dégradé_sans_nom_100);
      }

      .cls-4 {
        opacity: .88;
      }
    </style>
    <linearGradient id="Dégradé_sans_nom_100" data-name="Dégradé sans nom 100" x1="314.92" y1="245.42" x2="339.06" y2="567.47" gradientUnits="userSpaceOnUse">
      <stop offset="0" stop-color="#fff"/>
      <stop offset=".31" stop-color="#f18f34"/>
      <stop offset=".58" stop-color="#e95f32"/>
      <stop offset=".66" stop-color="#e3312d"/>
    </linearGradient>
    <linearGradient id="Dégradé_sans_nom_102" data-name="Dégradé sans nom 102" x1="240.51" y1="236.53" x2="274.43" y2="418.69" gradientUnits="userSpaceOnUse">
      <stop offset="0" stop-color="#fdc800"/>
      <stop offset=".51" stop-color="#f18f34"/>
      <stop offset=".79" stop-color="#e95f32"/>
      <stop offset="1" stop-color="#e3312d"/>
    </linearGradient>
    <linearGradient id="Dégradé_sans_nom_94" data-name="Dégradé sans nom 94" x1="326.54" y1="124.01" x2="372.93" y2="448.43" gradientUnits="userSpaceOnUse">
      <stop offset="0" stop-color="#ffef26"/>
      <stop offset=".02" stop-color="#fee921"/>
      <stop offset=".1" stop-color="#fdd70e"/>
      <stop offset=".19" stop-color="#fdcb03"/>
      <stop offset=".28" stop-color="#fdc800"/>
      <stop offset=".67" stop-color="#f18f34"/>
      <stop offset=".89" stop-color="#e95f32"/>
      <stop offset="1" stop-color="#e3312d"/>
    </linearGradient>
  </defs>
  <path class="cls-3" d="M274.2,567.79s-34.11-29-21.43-76.69c3.74-14.08,11.09-26.93,20.89-37.71,1.88-2.06,4.03-4.35,6.48-6.84,9.66-9.81,20.11-18.8,31.15-27.03,13.6-10.15,39.75-31.45,42.55-47.2,0,0,3.81-9.96,10.84,0,0,0,3.7,5.39,.93,18.07-1.91,8.73-6,16.82-11.68,23.71-5.67,6.9-14.19,18.22-15.92,25.9,0,0-.15,1.19-.41,3.17-2.16,16.6,11.44,24.81,25.22,23.38,10.26-1.06,23.76-6.35,36.38-23.4,.63-.86,1.26-1.71,1.92-2.55,3.31-4.24,17.46-24.18,23.59-62.12,.39-2.41,.97-4.8,1.86-7.08,1.46-3.77,4.02-8.28,7.84-8.17,0,0,7.65,0,8.2,2.64,.5,2.39-1.96,54.92-17.59,79.56-.63,1-1.21,2.02-1.79,3.04-4.01,7.08-21.67,34.49-64.72,54.24-49.81,22.86-74.48,26.95-79.41,46l-4.93,19.06Z"/>
  <path class="cls-6" d="M267.37,279.85s-84.07,59.89-45.06,150.55c0,0,26.61,59.75,78.26,53.36,20.76-2.57,36.4-20.61,35.31-41.51-.28-5.38-1.33-11.44-3.44-18.24-2.47-7.93-6.74-15.18-12.38-21.29-9.92-10.74-28.62-30.51-46.76-47.04-32.99-30.07-5.93-75.82-5.93-75.82Z"/>
  <path class="cls-2" d="M327.51,158.93c-.17,0-.35,0-.52,0-.68,1.14-1.38,2.27-2.15,3.36,.7-.25,1.44-.37,2.17-.35,.13-1,.3-2,.49-3Z"/>
  <path class="cls-8" d="M423.75,308.16s-28.97-52.03-63.44-82.59c-2.12,1.03-4.9,.79-6.53-1.75-5.98-9.33-13.77-17.21-20.3-26.12-6.79-9.25-10.75-19.42-11.89-30.83-.03-.26-.02-.51,0-.75-.25,.24-.51,.48-.77,.7-2.58,2.19-7.1,1.77-8.23-1.77-4.89,10.94-7.56,22.99-6.18,34.32,1.31,10.79,6.1,20.87,10.33,30.76,3.92,9.16,7.23,18.13,9.25,27.92,.74,3.58-2.07,5.99-4.87,6.23,8.51,40.7-2.28,73.12-21.73,81.36-12.14,5.15-31.09,2.33-40.89-10.22-10.27-13.15-8.96-35.01,5.31-51.73-1.65,.97-3.19,2.1-4.63,3.35,.31,1.81-.22,3.79-2.1,5.13-9.09,6.48-14.64,16.37-21.31,25.07-.31,.41-.66,.75-1.03,1.03-.7,6.57-4.55,11.44-7.57,17.24-1.15,2.2-3.13,2.8-4.97,2.38-5.57,18.43-8.45,38.92-5.81,57.7,.16,1.12-.02,2.12-.42,2.98,1.7,5.07,3.94,9.98,6.38,14.63,5.52,10.52,12.43,20.5,21.23,28.54,.11,.1,.21,.21,.31,.31,1.3,.32,2.63,.54,4.03,.58,9.19,.27,18.76-3.34,26.14-8.66,5.23-3.77,10.22,4.91,5.05,8.63-8.14,5.87-18.43,9.4-28.43,9.97-4.76,.27-9.29-.45-13.66-2.36-.96-.42-1.88-.86-2.79-1.29,1.91,2.53,3.93,5.02,6.11,7.48,13.62,15.4,31.45,24.37,47.63,29.6,34.13,11.04,71.69,5.79,100.37-15.75,14.38-10.8,27.83-26.59,35.44-49.63,22.15-67.01,0-112.44,0-112.45Z"/>
  <path class="cls-1" d="M335.91,133.68s-56.32,16.43-24.25,97c27.62,69.38,.35,127.16-7.76,141.87-3.4,6.17-6.13,12.7-7.91,19.52-5,19.11-7.32,52.01,22.86,79.2,0,0,40.84,31.96,80.88-10.76,0,0,57.26-58.72,26.52-148.64,0,0-17.93-38.56-54.24-76.36-33.44-34.81-45.74-47.18-41.58-75.94,3.81-26.36,5.49-25.89,5.49-25.89Z"/>
  <path class="cls-7" d="M267.37,279.85s-84.07,59.89-45.06,150.55c0,0,26.61,59.75,78.26,53.36,20.76-2.57,36.4-20.61,35.31-41.51-.28-5.38-1.33-11.44-3.44-18.24-2.47-7.93-6.74-15.18-12.38-21.29-9.92-10.74-28.62-30.51-46.76-47.04-32.99-30.07-5.93-75.82-5.93-75.82Z"/>
  <path class="cls-4" d="M274.2,567.79s-34.11-29-21.43-76.69c3.74-14.08,11.09-26.93,20.89-37.71,1.88-2.06,4.03-4.35,6.48-6.84,9.66-9.81,20.11-18.8,31.15-27.03,13.6-10.15,39.75-31.45,42.55-47.2,0,0,3.81-9.96,10.84,0,0,0,3.7,5.39,.93,18.07-1.91,8.73-6,16.82-11.68,23.71-5.67,6.9-14.19,18.22-15.92,25.9,0,0-.15,1.19-.41,3.17-2.16,16.6,11.44,24.81,25.22,23.38,10.26-1.06,23.76-6.35,36.38-23.4,.63-.86,1.26-1.71,1.92-2.55,3.31-4.24,17.46-24.18,23.59-62.12,.39-2.41,.97-4.8,1.86-7.08,1.46-3.77,4.02-8.28,7.84-8.17,0,0,7.65,0,8.2,2.64,.5,2.39-1.96,54.92-17.59,79.56-.63,1-1.21,2.02-1.79,3.04-4.01,7.08-21.67,34.49-64.72,54.24-49.81,22.86-74.48,26.95-79.41,46l-4.93,19.06Z"/>
  <path class="cls-5" d="M335.91,133.68s-56.32,16.43-24.25,97c27.62,69.38,.35,127.16-7.76,141.87-3.4,6.17-6.13,12.7-7.91,19.52-5,19.11-7.32,52.01,22.86,79.2,0,0,40.84,31.96,80.88-10.76,0,0,57.26-58.72,26.52-148.64,0,0-17.93-38.56-54.24-76.36-33.44-34.81-45.74-47.18-41.58-75.94,3.81-26.36,5.49-25.89,5.49-25.89Z"/>
</svg>