<?xml version="1.0" encoding="UTF-8"?>
<svg id="Calque_1" data-name="Calque 1" xmlns="http://www.w3.org/2000/svg" xmlns:xlink="http://www.w3.org/1999/xlink" viewBox="0 0 792 612">
  <defs>
    <style>
      .cls-1 {
        fill: #e9541a;
      }

      .cls-2 {
        fill: #ec8b3a;
      }

      .cls-3 {
        fill: url(#Dégradé_sans_nom_94);
        opacity: .48;
      }

      .cls-4 {
        fill: #e86c2a;
        opacity: .61;
      }

      .cls-5 {
        fill: url(#Dégradé_sans_nom_102);
      }

      .cls-6 {
        fill: url(#Dégradé_sans_nom_100);
      }

      .cls-7 {
        fill: url(#Nouvelle_nuance_de_dégradé_1);
      }
    </style>
    <linearGradient id="Dégradé_sans_nom_100" data-name="Dégradé sans nom 100" x1="396.06" y1="155.52" x2="421.4" y2="493.63" gradientUnits="userSpaceOnUse">
      <stop offset="0" stop-color="#fff"/>
      <stop offset=".31" stop-color="#f18f34"/>
      <stop offset=".58" stop-color="#e95f32"/>
      <stop offset=".66" stop-color="#e3312d"/>
    </linearGradient>
    <linearGradient id="Dégradé_sans_nom_102" data-name="Dégradé sans nom 102" x1="317.94" y1="146.19" x2="353.55" y2="337.43" gradientUnits="userSpaceOnUse">
      <stop offset="0" stop-color="#fdc800"/>
      <stop offset=".51" stop-color="#f18f34"/>
      <stop offset=".79" stop-color="#e95f32"/>
      <stop offset="1" stop-color="#e3312d"/>
    </linearGradient>
    <linearGradient id="Dégradé_sans_nom_94" data-name="Dégradé sans nom 94" x1="408.26" y1="28.05" x2="456.97" y2="368.65" gradientUnits="userSpaceOnUse">
      <stop offset="0" stop-color="#ffef26"/>
      <stop offset=".02" stop-color="#fee921"/>
      <stop offset=".1" stop-color="#fdd70e"/>
      <stop offset=".19" stop-color="#fdcb03"/>
      <stop offset=".28" stop-color="#fdc800"/>
      <stop offset=".67" stop-color="#f18f34"/>
      <stop offset=".89" stop-color="#e95f32"/>
      <stop offset="1" stop-color="#e3312d"/>
    </linearGradient>
    <linearGradient id="Nouvelle_nuance_de_dégradé_1" data-name="Nouvelle nuance de dégradé 1" x1="336.25" y1="394.35" x2="538.61" y2="394.35" gradientUnits="userSpaceOnUse">
      <stop offset="0" stop-color="#3665ae"/>
      <stop offset=".12" stop-color="#3269b1"/>
      <stop offset=".25" stop-color="#2675bd"/>
      <stop offset=".38" stop-color="#128bd0"/>
      <stop offset=".47" stop-color="#009fe3"/>
      <stop offset="1" stop-color="#2fbdef"/>
    </linearGradient>
  </defs>
  <path class="cls-2" d="M319.83,131.31c-.24,0-.47,0-.71-.01-.92,1.56-1.89,3.1-2.93,4.58,.95-.34,1.97-.51,2.96-.47,.17-1.37,.4-2.74,.67-4.09Z"/>
  <path class="cls-4" d="M346.14,191.67s-88.26,62.88-47.3,158.06c0,0,27.93,62.73,82.16,56.02,21.8-2.7,38.21-21.64,37.07-43.58-.3-5.64-1.39-12.01-3.62-19.15-2.59-8.33-7.08-15.94-13-22.35-10.41-11.28-30.05-32.04-49.09-49.39-34.64-31.57-6.23-79.61-6.23-79.61Z"/>
  <path class="cls-6" d="M510.32,221.38s-30.41-54.62-66.6-86.7c-2.23,1.08-5.15,.83-6.86-1.83-6.28-9.79-14.45-18.07-21.32-27.43-7.12-9.71-11.29-20.39-12.49-32.37-.03-.27-.02-.53,0-.79-.27,.25-.53,.5-.81,.74-2.7,2.3-7.45,1.86-8.64-1.86-5.13,11.49-7.94,24.14-6.49,36.03,1.38,11.32,6.41,21.91,10.84,32.29,4.12,9.62,7.59,19.03,9.71,29.31,.77,3.76-2.18,6.29-5.11,6.54,8.94,42.73-2.39,76.76-22.81,85.42-12.75,5.41-32.64,2.45-42.93-10.73-10.78-13.81-9.4-36.76,5.57-54.31-1.73,1.02-3.35,2.2-4.87,3.52,.33,1.9-.23,3.98-2.2,5.39-9.54,6.81-15.37,17.18-22.37,26.32-.33,.43-.69,.79-1.08,1.08-.73,6.9-4.78,12.01-7.94,18.1-1.2,2.31-3.29,2.94-5.22,2.5-5.85,19.35-8.87,40.86-6.1,60.57,.17,1.17-.02,2.23-.44,3.13,1.79,5.33,4.14,10.48,6.7,15.36,5.79,11.04,13.05,21.52,22.29,29.96,.12,.11,.22,.22,.32,.33,1.36,.33,2.76,.57,4.23,.61,9.65,.28,19.69-3.5,27.44-9.09,5.5-3.96,10.73,5.15,5.3,9.07-8.55,6.16-19.34,9.87-29.85,10.47-5,.29-9.76-.47-14.34-2.47-1.01-.44-1.98-.9-2.93-1.36,2,2.65,4.13,5.27,6.41,7.85,14.3,16.16,33.02,25.59,50,31.08,35.83,11.59,75.27,6.08,105.38-16.54,15.09-11.34,29.22-27.92,37.21-52.1,23.25-70.35,0-118.05,0-118.06Z"/>
  <path class="cls-1" d="M418.1,38.21s-59.13,17.25-25.46,101.84c28.99,72.84,.37,133.5-8.14,148.95-3.57,6.48-6.43,13.34-8.31,20.49-5.25,20.06-7.69,54.6,24,83.15,0,0,42.88,33.55,84.91-11.3,0,0,60.12-61.65,27.85-156.05,0,0-18.82-40.48-56.94-80.16-35.11-36.55-48.02-49.54-43.66-79.72,4-27.67,5.76-27.18,5.76-27.18Z"/>
  <path class="cls-5" d="M346.14,191.67s-88.26,62.88-47.3,158.06c0,0,27.93,62.73,82.16,56.02,21.8-2.7,38.21-21.64,37.07-43.58-.3-5.64-1.39-12.01-3.62-19.15-2.59-8.33-7.08-15.94-13-22.35-10.41-11.28-30.05-32.04-49.09-49.39-34.64-31.57-6.23-79.61-6.23-79.61Z"/>
  <path class="cls-3" d="M418.1,38.21s-59.13,17.25-25.46,101.84c28.99,72.84,.37,133.5-8.14,148.95-3.57,6.48-6.43,13.34-8.31,20.49-5.25,20.06-7.69,54.6,24,83.15,0,0,42.88,33.55,84.91-11.3,0,0,60.12-61.65,27.85-156.05,0,0-18.82-40.48-56.94-80.16-35.11-36.55-48.02-49.54-43.66-79.72,4-27.67,5.76-27.18,5.76-27.18Z"/>
  <path class="cls-7" d="M361.72,501.73s-35.81-30.44-22.5-80.51c3.93-14.78,11.64-28.27,21.93-39.59,1.97-2.17,4.23-4.56,6.81-7.18,10.15-10.3,21.12-19.74,32.7-28.38,14.28-10.65,41.73-33.02,44.67-49.55,0,0,4-10.46,11.38,0,0,0,3.88,5.66,.97,18.97-2,9.16-6.3,17.65-12.26,24.9-5.95,7.24-14.9,19.13-16.71,27.2,0,0-.16,1.25-.43,3.33-2.27,17.43,12.01,26.04,26.48,24.54,10.77-1.12,24.95-6.67,38.19-24.56,.67-.9,1.32-1.79,2.01-2.68,3.47-4.45,18.33-25.39,24.77-65.22,.41-2.53,1.02-5.04,1.95-7.44,1.54-3.96,4.22-8.69,8.23-8.58,0,0,8.03,0,8.61,2.77,.53,2.51-2.06,57.66-18.47,83.53-.66,1.04-1.27,2.12-1.88,3.19-4.21,7.44-22.75,36.21-67.94,56.95-52.3,24-78.2,28.29-83.37,48.3l-5.17,20.01Z"/>
</svg>