<?xml version="1.0" encoding="UTF-8"?>
<svg id="Calque_1" data-name="Calque 1" xmlns="http://www.w3.org/2000/svg" xmlns:xlink="http://www.w3.org/1999/xlink" viewBox="0 0 792 612">
  <defs>
    <style>
      .cls-1 {
        fill: url(#Dégradé_sans_nom_55-2);
      }

      .cls-1, .cls-2 {
        stroke: #fff;
        stroke-miterlimit: 10;
        stroke-width: 8px;
      }

      .cls-2 {
        fill: url(#Dégradé_sans_nom_55);
      }

      .cls-3 {
        fill: url(#Dégradé_sans_nom_29);
      }

      .cls-4 {
        fill: url(#Dégradé_sans_nom_62);
      }

      .cls-5 {
        fill: url(#Dégradé_sans_nom_67);
      }

      .cls-6 {
        fill: url(#Dégradé_sans_nom_65);
      }
    </style>
    <linearGradient id="Dégradé_sans_nom_65" data-name="Dégradé sans nom 65" x1="374.81" y1="430.72" x2="365.06" y2="126.97" gradientUnits="userSpaceOnUse">
      <stop offset=".03" stop-color="#e61e43"/>
      <stop offset=".21" stop-color="#e5291e"/>
      <stop offset=".53" stop-color="#ee721b"/>
      <stop offset=".66" stop-color="#ee741a"/>
      <stop offset=".76" stop-color="#f07e17"/>
      <stop offset=".85" stop-color="#f38e13"/>
      <stop offset=".93" stop-color="#f7a50e"/>
      <stop offset="1" stop-color="#fdc207"/>
    </linearGradient>
    <linearGradient id="Dégradé_sans_nom_29" data-name="Dégradé sans nom 29" x1="374.6" y1="388.58" x2="367.76" y2="173.84" gradientTransform="translate(-1.44 1.43) rotate(-.23)" gradientUnits="userSpaceOnUse">
      <stop offset="0" stop-color="#e5291e"/>
      <stop offset=".52" stop-color="#ee721b"/>
      <stop offset=".68" stop-color="#f38d14"/>
      <stop offset="1" stop-color="#fdc207"/>
    </linearGradient>
    <linearGradient id="Dégradé_sans_nom_55" data-name="Dégradé sans nom 55" x1="-166.05" y1="443.09" x2="-103.09" y2="345.35" gradientTransform="translate(163.37) rotate(-180) scale(1 -1)" gradientUnits="userSpaceOnUse">
      <stop offset="0" stop-color="#3665ae"/>
      <stop offset=".47" stop-color="#009fe3"/>
      <stop offset="1" stop-color="#2fbdef"/>
    </linearGradient>
    <linearGradient id="Dégradé_sans_nom_62" data-name="Dégradé sans nom 62" x1="824.01" y1="422.32" x2="940.27" y2="422.32" gradientTransform="translate(1185.67) rotate(-180) scale(1 -1)" gradientUnits="userSpaceOnUse">
      <stop offset="0" stop-color="#3665ae"/>
      <stop offset=".47" stop-color="#009fe3"/>
      <stop offset="1" stop-color="#2fbdef"/>
    </linearGradient>
    <linearGradient id="Dégradé_sans_nom_55-2" data-name="Dégradé sans nom 55" x1="-402.65" y1="443.09" x2="-339.68" y2="345.35" gradientTransform="translate(819.46)" xlink:href="#Dégradé_sans_nom_55"/>
    <linearGradient id="Dégradé_sans_nom_67" data-name="Dégradé sans nom 67" x1="591.43" y1="472.34" x2="712.16" y2="317.63" gradientTransform="translate(-202.85)" gradientUnits="userSpaceOnUse">
      <stop offset="0" stop-color="#3665ae"/>
      <stop offset=".12" stop-color="#3269b1"/>
      <stop offset=".25" stop-color="#2675bd"/>
      <stop offset=".38" stop-color="#128bd0"/>
      <stop offset=".47" stop-color="#009fe3"/>
      <stop offset="1" stop-color="#2fbdef"/>
    </linearGradient>
  </defs>
  <g>
    <path class="cls-6" d="M342.59,276.92s19.45-14.13,5.27-56.28c-14.18-42.15-18.73-86.12-.05-112.47,0,0,1.26,25.13,32.87,68.49,0,0,30.8,30.4,32.83,63.63,0,0-.41,57.55,2.03,67.28,2.43,9.73,27.15,85.92,27.15,85.92l-26.75,38.91-66.47-11.75-20.67-24.32-24.72-16.62v-52.28l14.59-31.21,23.91-19.31Z"/>
    <path class="cls-3" d="M314.07,211.29s3.68,38.19-13.41,52.14c0,0-45.54,55.47-32.22,104.56,13.32,49.09,41.3,60.42,41.3,60.42,5.7,8.45,27.18,38.05,62.44,42.5,49.94,6.3,90.64-42.53,103.01-80.18,2.79-8.48,9.51-29.89,2.81-55.88-4.41-17.1-12.83-29.22-18.32-35.94,0,0-28.38-25.97-17.8-74.65,0,0-21.85,5.98-30.83,34.29,0,0-1.54,3.47-.64,36.45,.9,32.98,4.43,52.91,4.43,52.91l2.86,44.86-101.54-4,10.74-68.5s8.7-30.72,14.05-36.49,6.83-46.24-26.89-72.47Z"/>
  </g>
  <path class="cls-2" d="M329.65,355.72c11.61,19.03,18.14,36.19,21.93,48.49,5.72,18.55,15.16,49.23,6.75,86.02-4.25,18.56-11.68,32.72-17.29,41.74l-77.34-103.17c-.44-.87-.87-1.75-1.29-2.63-10.51-21.94-21.11-45.79-15.41-90.84,0,0,4.66-26.8,14.98-22.15,2.99,1.35,4.69,4.56,4.44,7.83-.48,6.29-3.32,17-1.06,35.94,6.03,28.23,40.19,79.03,55.24,72.18,2.41-1.1,10.69-8.98-1.69-43.25-1.62-4.5-8.23-27.96-2.66-34.26,.3-.34,1.2-1.36,2.69-1.79,4.53-1.33,9.46,4.2,10.18,5.02l.53,.84Z"/>
  <path class="cls-4" d="M329.65,355.72c11.61,19.03,18.14,36.19,21.93,48.49,5.72,18.55,15.16,49.23,6.75,86.02-4.25,18.56-11.68,32.72-17.29,41.74l-77.34-103.17c-.44-.87-.87-1.75-1.29-2.63-10.51-21.94-21.11-45.79-15.41-90.84,0,0,4.66-26.8,14.98-22.15,2.99,1.35,4.69,4.56,4.44,7.83-.48,6.29-3.32,17-1.06,35.94,6.03,28.23,40.19,79.03,55.24,72.18,2.41-1.1,10.69-8.98-1.69-43.25-1.62-4.5-8.23-27.96-2.66-34.26,.3-.34,1.2-1.36,2.69-1.79,4.53-1.33,9.46,4.2,10.18,5.02l.53,.84Z"/>
  <path class="cls-1" d="M416.58,355.72c-11.61,19.03-18.14,36.19-21.93,48.49-5.72,18.55-15.16,49.23-6.75,86.02,4.25,18.56,11.68,32.72,17.29,41.74l77.34-103.17c.44-.87,.87-1.75,1.29-2.63,10.51-21.94,21.11-45.79,15.41-90.84,0,0-4.66-26.8-14.98-22.15-2.99,1.35-4.69,4.56-4.44,7.83,.48,6.29,3.32,17,1.06,35.94-6.03,28.23-40.19,79.03-55.24,72.18-2.41-1.1-10.69-8.98,1.69-43.25,1.62-4.5,8.23-27.96,2.66-34.26-.3-.34-1.2-1.36-2.69-1.79-4.53-1.33-9.46,4.2-10.18,5.02l-.53,.84Z"/>
  <path class="cls-5" d="M416.58,355.72c-11.61,19.03-18.14,36.19-21.93,48.49-5.72,18.55-15.16,49.23-6.75,86.02,4.25,18.56,11.68,32.72,17.29,41.74l77.34-103.17c.44-.87,.87-1.75,1.29-2.63,10.51-21.94,21.11-45.79,15.41-90.84,0,0-4.66-26.8-14.98-22.15-2.99,1.35-4.69,4.56-4.44,7.83,.48,6.29,3.32,17,1.06,35.94-6.03,28.23-40.19,79.03-55.24,72.18-2.41-1.1-10.69-8.98,1.69-43.25,1.62-4.5,8.23-27.96,2.66-34.26-.3-.34-1.2-1.36-2.69-1.79-4.53-1.33-9.46,4.2-10.18,5.02l-.53,.84Z"/>
</svg>