<?xml version="1.0" encoding="UTF-8"?>
<svg id="Calque_1" data-name="Calque 1" xmlns="http://www.w3.org/2000/svg" xmlns:xlink="http://www.w3.org/1999/xlink" viewBox="0 0 2000 2000">
  <defs>
    <style>
      .cls-1 {
        fill: #1d1d1b;
      }

      .cls-2 {
        fill: url(#Orange_Jaune);
      }
    </style>
    <linearGradient id="Orange_Jaune" data-name="Orange, Jaune" x1="747.72" y1="835.44" x2="957.8" y2="835.44" gradientUnits="userSpaceOnUse">
      <stop offset="0" stop-color="#ffee25"/>
      <stop offset=".02" stop-color="#fee820"/>
      <stop offset=".1" stop-color="#fdd60e"/>
      <stop offset=".19" stop-color="#fdca03"/>
      <stop offset=".28" stop-color="#fdc700"/>
      <stop offset=".67" stop-color="#f08f34"/>
      <stop offset=".89" stop-color="#e86031"/>
      <stop offset="1" stop-color="#e2312d"/>
    </linearGradient>
  </defs>
  <rect class="cls-2" x="747.72" y="804.5" width="210.08" height="61.88" rx="14.22" ry="14.22"/>
  <g>
    <path class="cls-1" d="M769.65,983.57h-17.64v-91.72h17.64v91.72Z"/>
    <path class="cls-1" d="M835.12,983.57h-17.64l-20.46-54.47,2.82,28.36v26.1h-17.64v-91.72h17.64l20.46,54.47-2.82-28.36v-26.1h17.64v91.72Z"/>
    <path class="cls-1" d="M890.01,928.83v17.64h-24.69v37.11h-17.64v-91.72h42.33v17.64h-24.69v19.33h24.69Z"/>
    <path class="cls-1" d="M918.23,965.94h21.87v17.64h-39.51v-91.72h17.64v74.08Z"/>
    <path class="cls-1" d="M998.65,891.86v67.87c0,7.71-2.31,13.83-6.91,18.34-4.61,4.51-10.63,6.77-18.06,6.77s-13.47-2.28-18.13-6.84c-4.66-4.56-6.99-10.65-6.99-18.27v-67.87h17.64v67.87c0,2.26,.63,4.07,1.91,5.43,1.27,1.37,3.08,2.05,5.43,2.05s4.18-.68,5.5-2.05c1.32-1.36,1.98-3.17,1.98-5.43v-67.87h17.64Z"/>
    <path class="cls-1" d="M1052.55,928.83v17.64h-24.69v19.47h24.69v17.64h-42.33v-91.72h42.33v17.64h-24.69v19.33h24.69Z"/>
    <path class="cls-1" d="M1117.04,983.57h-17.64l-20.46-54.47,2.82,28.36v26.1h-17.64v-91.72h17.64l20.46,54.47-2.82-28.36v-26.1h17.64v91.72Z"/>
    <path class="cls-1" d="M1173.76,909.49h-14.81v74.08h-17.64v-74.08h-14.82v-17.64h47.27v17.64Z"/>
    <path class="cls-1" d="M1200.85,983.57h-17.64v-91.72h17.64v91.72Z"/>
    <path class="cls-1" d="M1227.8,983.57h-18.2l18.06-91.72h25.26l18.06,91.72h-18.2l-3.53-20.46h-18.06l-3.39,20.46Zm12.42-70.55l-5.93,33.16h11.85l-5.93-33.16Z"/>
    <path class="cls-1" d="M1297.36,965.94h21.87v17.64h-39.51v-91.72h17.64v74.08Z"/>
    <path class="cls-1" d="M794.34,1034.15v17.64h-24.69v37.11h-17.64v-91.72h42.33v17.64h-24.69v19.33h24.69Z"/>
    <path class="cls-1" d="M822.56,1088.9h-17.64v-91.72h17.64v91.72Z"/>
    <path class="cls-1" d="M883.94,1088.9h-18.34l-6.77-28.22h-6.07v28.22h-17.64v-91.72h23.7c7.34,0,13.36,2.26,18.06,6.77,4.7,4.52,7.06,10.58,7.06,18.2v13.55c0,9.22-3.39,16.13-10.16,20.74l2.96,3.81,7.2,28.64Zm-31.18-45.86h6.07c2.35,0,4.19-.68,5.5-2.05,1.32-1.36,1.98-3.13,1.98-5.29v-13.55c0-2.16-.66-3.93-1.98-5.29-1.32-1.36-3.15-2.05-5.5-2.05h-6.07v28.22Z"/>
    <path class="cls-1" d="M936.43,1034.15v17.64h-24.69v19.47h24.69v17.64h-42.33v-91.72h42.33v17.64h-24.69v19.33h24.69Z"/>
    <path class="cls-1" d="M769.65,1176.59h21.87v17.64h-39.51v-91.72h17.64v74.08Z"/>
    <path class="cls-1" d="M843.31,1139.48v17.64h-24.69v19.47h24.69v17.64h-42.33v-91.72h42.33v17.64h-24.69v19.33h24.69Z"/>
    <path class="cls-1" d="M946.02,1194.23h-23.7v-91.72h23.7c7.24,0,13.22,2.35,17.92,7.06,4.7,4.7,7.06,10.68,7.06,17.92v41.62c0,7.53-2.31,13.59-6.91,18.2-4.61,4.61-10.63,6.91-18.06,6.91Zm-.14-74.08h-5.93v56.86h5.93c2.16,0,3.95-.75,5.36-2.26,1.41-1.5,2.12-3.48,2.12-5.93v-41.2c0-2.16-.66-3.95-1.98-5.36-1.32-1.41-3.15-2.12-5.5-2.12Z"/>
    <path class="cls-1" d="M1024.19,1139.48v17.64h-24.69v19.47h24.69v17.64h-42.33v-91.72h42.33v17.64h-24.69v19.33h24.69Z"/>
    <path class="cls-1" d="M1084.58,1194.23h-18.34l-6.77-28.22h-6.07v28.22h-17.64v-91.72h23.7c7.34,0,13.36,2.26,18.06,6.77,4.7,4.52,7.06,10.58,7.06,18.2v13.55c0,9.22-3.39,16.13-10.16,20.74l2.96,3.81,7.2,28.64Zm-31.18-45.86h6.07c2.35,0,4.19-.68,5.5-2.05,1.32-1.36,1.98-3.13,1.98-5.29v-13.55c0-2.16-.66-3.93-1.98-5.29-1.32-1.36-3.15-2.05-5.5-2.05h-6.07v28.22Z"/>
    <path class="cls-1" d="M1092.34,1170.24v-8.89h17.64v8.89c0,2.45,.68,4.33,2.05,5.64,1.36,1.32,3.13,1.98,5.29,1.98s3.95-.66,5.36-1.98c1.41-1.32,2.12-3.15,2.12-5.5,0-2.73-.75-4.75-2.26-6.07l-23.42-20.32c-4.52-3.95-6.77-9.92-6.77-17.92,0-7.43,2.26-13.45,6.77-18.06,4.51-4.61,10.63-6.91,18.34-6.91s13.8,2.31,18.27,6.91c4.47,4.61,6.7,10.63,6.7,18.06v9.17h-17.64v-9.17c0-2.35-.71-4.16-2.12-5.43-1.41-1.27-3.2-1.9-5.36-1.9s-3.93,.63-5.29,1.9c-1.37,1.27-2.05,3.08-2.05,5.43,0,2.73,.8,4.8,2.4,6.21l23.28,20.32c4.51,4.05,6.77,9.97,6.77,17.78s-2.26,13.48-6.77,18.13c-4.52,4.66-10.58,6.98-18.2,6.98s-13.71-2.35-18.27-7.06c-4.56-4.7-6.84-10.77-6.84-18.2Z"/>
  </g>
  <path class="cls-1" d="M913.72,1165.74c-.46-5.65-3.44-11.61-3.95-12.64-1.54-3.08-3.21-5.46-4.51-7.11-.22,2.49-1.16,9.16-6.43,13.2-.77,.59-1.57,1.07-2.37,1.47,1.74-2.29,9.45-12.97,7.67-27.64-1.44-11.92-8.34-19.88-10.83-22.23-.63-.59-3.32-3.03-7.11-5.75-1.55-1.11-2.88-1.99-3.84-2.59,1.4,2.15,3.78,6.54,3.16,11.85-.53,4.57-3.03,7.6-7,12.41-3.89,4.72-5.18,4.84-11.73,11.85-3.32,3.56-4.98,5.33-6.61,7.76-3.46,5.18-5.27,10.56-5.8,13.39-1.6,8.56,3.73,19,13.23,27.41-2.6-3.38-3.89-7.03-3.3-10.18,.27-1.42,1.17-4.1,2.9-6.69,.81-1.22,1.64-2.1,3.31-3.88,3.27-3.5,3.92-3.56,5.87-5.92,1.98-2.41,3.23-3.92,3.5-6.21,.31-2.65-.88-4.85-1.58-5.92,.48,.3,1.15,.74,1.92,1.3,1.89,1.36,3.24,2.58,3.55,2.88,1.25,1.17,4.69,5.15,5.42,11.11,.89,7.34-2.97,12.68-3.84,13.82,.4-.2,.8-.44,1.18-.73,2.64-2.02,3.11-5.36,3.22-6.6,.65,.82,1.49,2.01,2.26,3.55,.26,.51,1.75,3.49,1.97,6.32,.35,4.34-2.16,9.82-7.16,12.58-1.31,.72-2.62,1.16-3.89,1.4,4.8,.6,10.63,.18,16.46-3.03,10.01-5.51,15.03-16.48,14.33-25.16Z"/>
</svg>